<?xml version="1.0" encoding="UTF-8"?>
<svg version="1.1" xmlns="http://www.w3.org/2000/svg" width="500" height="500">
<path d="M0 0 C165 0 330 0 500 0 C500 165 500 330 500 500 C335 500 170 500 0 500 C0 335 0 170 0 0 Z " fill="#FEFEFE" transform="translate(0,0)"/>
<path d="M0 0 C0.66 0 1.32 0 2 0 C3.42229378 2.74299514 4.8445818 5.48599327 6.2668457 8.22900391 C7.52046434 10.6467119 8.77422408 13.06434666 10.02807617 15.48193359 C13.26449268 21.72245222 16.49940439 27.96373955 19.73046875 34.20703125 C20.92443493 36.51304374 22.11844452 38.81903375 23.3125 41.125 C23.89161133 42.24422852 24.47072266 43.36345703 25.06738281 44.51660156 C27.64583714 49.49238522 30.23542714 54.46075076 32.87890625 59.40234375 C33.30582764 60.20075684 33.73274902 60.99916992 34.17260742 61.82177734 C34.94878712 63.26822957 35.72863805 64.71272057 36.51293945 66.15478516 C39 70.78279683 39 70.78279683 39 73 C38.36312256 73.17539307 37.72624512 73.35078613 37.07006836 73.53149414 C25.29571966 76.7817324 13.54824641 80.08908381 1.875 83.6875 C-5.43350855 85.94043415 -12.74133128 88.04700737 -20.1484375 89.953125 C-23.21758378 90.78733514 -26.25011016 91.67447883 -29.2890625 92.609375 C-30.20341064 92.89031006 -31.11775879 93.17124512 -32.05981445 93.46069336 C-33.86766157 94.02012383 -35.67357463 94.58585076 -37.47729492 95.15844727 C-38.29560791 95.41166748 -39.1139209 95.6648877 -39.95703125 95.92578125 C-40.68897705 96.15692627 -41.42092285 96.38807129 -42.17504883 96.6262207 C-44 97 -44 97 -46 96 C-37.52716933 77.86907402 -28.96443625 59.78854701 -20.17849731 41.80703735 C-14.79771463 30.78843657 -9.56276061 19.71445515 -4.48925781 8.55078125 C-4.03905273 7.56207031 -3.58884766 6.57335937 -3.125 5.5546875 C-2.73570312 4.69343262 -2.34640625 3.83217773 -1.9453125 2.94482422 C-1 1 -1 1 0 0 Z " fill="#262223" transform="translate(266,223)"/>
<path d="M0 0 C3.30731428 1.28524068 6.49849941 2.68616221 9.67236328 4.27148438 C10.57165558 4.71955444 11.47094788 5.16762451 12.39749146 5.62927246 C13.84428787 6.35418884 13.84428787 6.35418884 15.3203125 7.09375 C16.33358612 7.59990845 17.34685974 8.10606689 18.39083862 8.62756348 C20.54148749 9.70254773 22.69163175 10.77854202 24.84130859 11.85546875 C28.0633094 13.46910425 31.28737672 15.07854887 34.51171875 16.6875 C50.16121821 24.50938203 65.73130454 32.45459862 81 41 C77.79628336 48.96389833 74.27902319 56.66981264 70.375 64.3125 C64.4019401 76.1234657 58.66367869 88.03809459 53 100 C50 99 50 99 48.62475586 96.80126953 C47.92684937 95.3566333 47.92684937 95.3566333 47.21484375 93.8828125 C46.68310547 92.79871094 46.15136719 91.71460938 45.60351562 90.59765625 C45.05373047 89.45167969 44.50394531 88.30570312 43.9375 87.125 C42.86575119 84.91806965 41.79145956 82.71237265 40.71484375 80.5078125 C40.43114426 79.92591156 40.14744476 79.34401062 39.85514832 78.74447632 C36.99371595 72.91286171 33.9588689 67.17617456 30.92007446 61.43554688 C27.86977717 55.66811844 24.86553936 49.87897014 21.89453125 44.0703125 C21.47517807 43.25059967 21.05582489 42.43088684 20.62376404 41.58633423 C18.92234472 38.25813592 17.22280631 34.92897964 15.52368164 31.59960938 C14.25263992 29.11007421 12.98023429 26.62124296 11.70703125 24.1328125 C11.30356476 23.34344299 10.90009827 22.55407349 10.48440552 21.74078369 C7.48491459 15.89281614 4.37625946 10.11278553 1.1862793 4.36669922 C0 2 0 2 0 0 Z " fill="#252122" transform="translate(183,178)"/>
<path d="M0 0 C1.79175596 4.17312699 0.02778954 7.78279723 -1.38671875 11.80859375 C-1.64499954 12.57115982 -1.90328033 13.33372589 -2.16938782 14.11940002 C-2.99891915 16.56225405 -3.84266788 18.99990021 -4.6875 21.4375 C-5.50881151 23.83611667 -6.32712795 26.23573767 -7.14486694 28.63557434 C-7.68088417 30.20861622 -8.21801326 31.78127967 -8.7562561 33.3535614 C-10.64383335 38.88614948 -12.40293552 44.44889776 -14.0949707 50.04467773 C-15.5602434 54.82944332 -17.15431242 59.56995216 -18.75 64.3125 C-19.06582031 65.25544922 -19.38164062 66.19839844 -19.70703125 67.16992188 C-20.46994132 69.44709285 -21.23426478 71.72377782 -22 74 C-22.66 74 -23.32 74 -24 74 C-24.78125 72.4375 -25.5625 70.875 -26.34375 69.3125 C-26.84487305 68.31041504 -27.34599609 67.30833008 -27.86230469 66.27587891 C-28.95722624 64.08570936 -30.05162438 61.89527807 -31.14550781 59.70458984 C-33.61111111 54.76828 -36.07943927 49.83372364 -38.578125 44.9140625 C-39.1359668 43.81191406 -39.1359668 43.81191406 -39.70507812 42.6875 C-40.38801853 41.33949053 -41.07408761 39.99306037 -41.76367188 38.6484375 C-44 34.22387433 -44 34.22387433 -44 32 C-42.64916992 30.80175781 -42.64916992 30.80175781 -40.73046875 29.453125 C-40.01544189 28.94458984 -39.30041504 28.43605469 -38.5637207 27.91210938 C-37.38749146 27.08936523 -37.38749146 27.08936523 -36.1875 26.25 C-34.53837795 25.07908853 -32.88996423 23.90717893 -31.2421875 22.734375 C-30.38206055 22.12400391 -29.52193359 21.51363281 -28.63574219 20.88476562 C-24.32669225 17.80345166 -20.0700057 14.6519609 -15.8125 11.5 C-10.57225791 7.62188372 -5.31590281 3.77393895 0 0 Z " fill="#262223" transform="translate(329,215)"/>
<path d="M0 0 C0.66 0 1.32 0 2 0 C0.20808872 5.98661269 -2.41421114 11.57604045 -5 17.25 C-5.45117188 18.25546875 -5.90234375 19.2609375 -6.3671875 20.296875 C-7.02074219 21.73546875 -7.02074219 21.73546875 -7.6875 23.203125 C-8.08324219 24.07614258 -8.47898437 24.94916016 -8.88671875 25.84863281 C-10.66907718 29.2929623 -12.45898687 30.31928538 -16.0078125 31.515625 C-16.8217749 31.79422363 -17.6357373 32.07282227 -18.47436523 32.35986328 C-19.78642944 32.80048096 -19.78642944 32.80048096 -21.125 33.25 C-22.95230609 33.87619599 -24.77912374 34.50381896 -26.60546875 35.1328125 C-27.51731934 35.44637695 -28.42916992 35.75994141 -29.36865234 36.08300781 C-35.62533138 38.26338325 -41.81031236 40.63762455 -48 43 C-49.10601562 43.42023438 -50.21203125 43.84046875 -51.3515625 44.2734375 C-55.94507864 46.02813831 -60.52774418 47.79670251 -65.0703125 49.6796875 C-66.09789673 50.10217773 -66.09789673 50.10217773 -67.14624023 50.53320312 C-68.48447897 51.08508055 -69.82005941 51.64345856 -71.15258789 52.20898438 C-72.74562393 52.8643271 -74.37117352 53.43949826 -76 54 C-76.66 53.67 -77.32 53.34 -78 53 C-69.02206011 46.7944857 -60.01612716 40.63806348 -50.92211914 34.60375977 C-39.80837584 27.22659458 -28.72253356 19.80988233 -17.67871094 12.32836914 C-15.57828461 10.90586215 -13.47665195 9.48514855 -11.375 8.06445312 C-10.03378145 7.1563574 -8.69263276 6.24815847 -7.3515625 5.33984375 C-6.72569244 4.91702621 -6.09982239 4.49420868 -5.45498657 4.05857849 C-2.59296237 2.1984432 -2.59296237 2.1984432 0 0 Z " fill="#282526" transform="translate(227,293)"/>
<path d="M0 0 C1.95824931 -0.02762421 3.91661983 -0.04667014 5.875 -0.0625 C6.96554688 -0.07410156 8.05609375 -0.08570313 9.1796875 -0.09765625 C10.44039062 -0.06542969 11.70109375 -0.03320312 13 0 C13.78544189 -0.10272217 14.57088379 -0.20544434 15.38012695 -0.3112793 C18.44697159 -0.48269216 20.19875709 -0.30744706 23 1 C26.64161472 5.69418113 28.96818213 10.93554048 31.4375 16.3125 C32.16505763 17.82495318 32.89668609 19.33545469 33.63232422 20.84399414 C34.73199417 23.10130985 35.82843288 25.35964917 36.91009521 27.62565613 C40.30304721 34.72874951 44.10116872 41.57269504 48.04077148 48.38598633 C49.08333434 50.22663075 50.0513671 52.10923168 51 54 C50.505 54.99 50.505 54.99 50 56 C37.1124031 42.20155039 37.1124031 42.20155039 31.7890625 36.0390625 C27.61442015 31.28106401 23.28739843 26.65633087 19 22 C13.74762151 16.29197634 8.49760438 10.5818415 3.3125 4.8125 C2.66925781 4.09707031 2.02601563 3.38164062 1.36328125 2.64453125 C0 1 0 1 0 0 Z " fill="#292627" transform="translate(176,214)"/>
<path d="M0 0 C-2.92689502 3.11654918 -5.96939529 5.46892778 -9.53515625 7.8203125 C-10.59154297 8.52027344 -11.64792969 9.22023438 -12.73632812 9.94140625 C-13.83396484 10.66199219 -14.93160156 11.38257813 -16.0625 12.125 C-17.17541485 12.86024641 -18.28804784 13.59591965 -19.40039062 14.33203125 C-21.43879808 15.6793476 -23.47846268 17.02476524 -25.51977539 18.36767578 C-27.35044427 19.57250422 -29.17650713 20.78433809 -31 22 C-34.59531474 21.62916297 -37.59609132 20.43017752 -40.86328125 18.93359375 C-41.74951172 18.53076172 -42.63574219 18.12792969 -43.54882812 17.71289062 C-44.46083984 17.29201172 -45.37285156 16.87113281 -46.3125 16.4375 C-47.24384766 16.01275391 -48.17519531 15.58800781 -49.13476562 15.15039062 C-51.4253672 14.10493657 -53.71363659 13.05468244 -56 12 C-56 11.34 -56 10.68 -56 10 C-49.15182486 8.5661048 -42.30145116 7.14309985 -35.44946289 5.72753906 C-33.12016981 5.24500216 -30.79138571 4.76000136 -28.46313477 4.27246094 C-25.11085623 3.57093778 -21.75682966 2.87838069 -18.40234375 2.1875 C-17.36665756 1.96876221 -16.33097137 1.75002441 -15.26390076 1.5246582 C-10.06830054 0.46375986 -5.30356501 -0.26013808 0 0 Z " fill="#2C2A2B" transform="translate(214,299)"/>
<path d="M0 0 C3.95665363 3.48367435 6.24742513 7.5355755 8.8125 12.0625 C9.68984176 13.5842364 10.56875379 15.10506853 11.44921875 16.625 C11.87895996 17.3675 12.30870117 18.11 12.75146484 18.875 C15.37035466 23.33233614 18.17592801 27.67037969 21 32 C17.54296142 32 16.55232353 31.31354447 13.69140625 29.48046875 C12.86189453 28.95259766 12.03238281 28.42472656 11.17773438 27.88085938 C10.31470703 27.32205078 9.45167969 26.76324219 8.5625 26.1875 C7.70333984 25.64029297 6.84417969 25.09308594 5.95898438 24.52929688 C2.20859547 22.12893159 -1.46175863 19.70671704 -5 17 C-4.35841048 14.35307023 -3.71195217 11.70750071 -3.0625 9.0625 C-2.88009766 8.30775391 -2.69769531 7.55300781 -2.50976562 6.77539062 C-1.11328125 1.11328125 -1.11328125 1.11328125 0 0 Z " fill="#2B292A" transform="translate(332,216)"/>
<path d="M0 0 C1.32 0.66 2.64 1.32 4 2 C-4.79229325 21.10301421 -13.80084732 40.08958974 -23 59 C-23.99 58.01 -24.98 57.02 -26 56 C-24.52309007 51.17536518 -22.5581686 46.79259169 -20.33203125 42.28515625 C-19.9741301 41.55235947 -19.61622894 40.81956268 -19.2474823 40.06455994 C-18.10600473 37.7287992 -16.95954691 35.39553006 -15.8125 33.0625 C-14.31710744 30.012648 -12.8239292 26.96171911 -11.33203125 23.91015625 C-10.96836456 23.16690094 -10.60469788 22.42364563 -10.23001099 21.65786743 C-6.72800893 14.48113902 -3.34654465 7.25028931 0 0 Z " fill="#EBEBEB" transform="translate(262,222)"/>
<path d="M0 0 C2.37630208 2.97836278 4.10702105 5.99315335 5.78515625 9.41015625 C6.31133545 10.47395508 6.83751465 11.53775391 7.37963867 12.63378906 C7.93498291 13.76526367 8.49032715 14.89673828 9.0625 16.0625 C13.54571932 25.13110231 18.10181706 34.14390316 22.92797852 43.03540039 C25.0288594 46.95122757 26.73943016 50.71271432 28 55 C27.01 55 26.02 55 25 55 C24.56171875 54.11183594 24.1234375 53.22367187 23.671875 52.30859375 C19.02890202 42.94261809 14.23210094 33.66347137 9.38085938 24.40380859 C5.49645337 16.97942055 1.70029557 9.51785402 -2 2 C-1.34 2 -0.68 2 0 2 C0 1.34 0 0.68 0 0 Z " fill="#E3E3E3" transform="translate(202,216)"/>
<path d="M0 0 C1.65 0 3.3 0 5 0 C5.495 1.485 5.495 1.485 6 3 C5.38592285 3.41773682 4.7718457 3.83547363 4.13916016 4.26586914 C1.30064047 6.19739516 -1.53718243 8.12994259 -4.375 10.0625 C-5.34050781 10.71927734 -6.30601562 11.37605469 -7.30078125 12.05273438 C-8.74130859 13.0340332 -8.74130859 13.0340332 -10.2109375 14.03515625 C-11.1709668 14.68887207 -12.13099609 15.34258789 -13.12011719 16.01611328 C-16.79049067 18.5445513 -20.41332792 21.13752546 -24.02587891 23.74780273 C-26 25 -26 25 -28 25 C-28 24.01 -28 23.02 -28 22 C-25.84612364 20.29771208 -23.73840655 18.8116773 -21.4375 17.33203125 C-20.77161865 16.89235519 -20.1057373 16.45267914 -19.41967773 15.99967957 C-17.28607022 14.59410156 -15.14329787 13.20324619 -13 11.8125 C-11.55406185 10.86358287 -10.10874075 9.91372478 -8.6640625 8.96289062 C-5.11644963 6.63093786 -1.5605494 4.31214755 2 2 C1.34 1.34 0.68 0.68 0 0 Z " fill="#DCDBDC" transform="translate(211,298)"/>
<path d="M0 0 C1.32 0 2.64 0 4 0 C2.41980408 5.2063297 0.22115005 9.98373311 -2.125 14.875 C-2.49753906 15.65875 -2.87007812 16.4425 -3.25390625 17.25 C-4.16618997 19.16813499 -5.08266984 21.08427329 -6 23 C-6.99 22.34 -7.98 21.68 -9 21 C-6.03 14.07 -3.06 7.14 0 0 Z " fill="#E7E6E7" transform="translate(227,296)"/>
<path d="M0 0 C2.79338987 3.43138632 4.77735487 7.18782761 6.75 11.125 C7.24306641 12.07439453 7.24306641 12.07439453 7.74609375 13.04296875 C8.56197269 14.66439906 9.28852285 16.33012128 10 18 C9.67 18.66 9.34 19.32 9 20 C8.34 20 7.68 20 7 20 C5.63092584 17.42362412 4.27971545 14.84031896 2.9375 12.25 C2.54755859 11.52039063 2.15761719 10.79078125 1.75585938 10.0390625 C1.39169922 9.33007812 1.02753906 8.62109375 0.65234375 7.890625 C0.31195068 7.24125977 -0.02844238 6.59189453 -0.37915039 5.92285156 C-1.13558044 3.58008982 -0.78821819 2.29543427 0 0 Z " fill="#DEDDDE" transform="translate(220,251)"/>
<path d="M0 0 C3.05001831 3.66002197 7 9.07851471 7 14 C6.01 14.33 5.02 14.66 4 15 C2.02 10.71 0.04 6.42 -2 2 C-1.34 2 -0.68 2 0 2 C0 1.34 0 0.68 0 0 Z " fill="#DDDDDD" transform="translate(202,216)"/>
<path d="M0 0 C0.99 0.66 1.98 1.32 3 2 C2.54625 3.11375 2.0925 4.2275 1.625 5.375 C0.04396803 9.49303676 -0.68994108 13.53680388 -1.27734375 17.8984375 C-2 20 -2 20 -4.06640625 21.2890625 C-4.70449219 21.52367187 -5.34257812 21.75828125 -6 22 C-4.20645194 14.59684417 -2.26858827 7.27235389 0 0 Z " fill="#B7B6B6" transform="translate(330,214)"/>
<path d="M0 0 C0.99 0.66 1.98 1.32 3 2 C1.68 4.97 0.36 7.94 -1 11 C-1.99 10.34 -2.98 9.68 -4 9 C-2.68 6.03 -1.36 3.06 0 0 Z " fill="#DBDBDB" transform="translate(222,308)"/>
<path d="M0 0 C1.32 0.66 2.64 1.32 4 2 C3.01 4.31 2.02 6.62 1 9 C-0.32 8.34 -1.64 7.68 -3 7 C-2.01 4.69 -1.02 2.38 0 0 Z " fill="#E3E3E3" transform="translate(262,222)"/>
<path d="M0 0 C0.66 0.33 1.32 0.66 2 1 C-1.82180842 5.4008703 -4.47371099 6.80805531 -10 8 C-6.97727468 4.74475735 -3.74281699 2.38179263 0 0 Z " fill="#3E3E3E" transform="translate(159,339)"/>
<path d="M0 0 C2.64465038 3.1254959 3.84414715 6.08788267 5 10 C4.01 10 3.02 10 2 10 C-1.07692308 4.58461538 -1.07692308 4.58461538 -0.6875 1.625 C-0.460625 1.08875 -0.23375 0.5525 0 0 Z " fill="#D8D7D7" transform="translate(220,251)"/>
<path d="M0 0 C0.99 0 1.98 0 3 0 C4.4606285 2.64738916 5 3.89448334 5 7 C4.01 6.67 3.02 6.34 2 6 C0.8125 2.9375 0.8125 2.9375 0 0 Z " fill="#E9E9E9" transform="translate(207,230)"/>
<path d="M0 0 C1.65 0 3.3 0 5 0 C5.33 0.99 5.66 1.98 6 3 C3 5 3 5 0 5 C0 4.34 0 3.68 0 3 C0.66 2.67 1.32 2.34 2 2 C1.34 1.34 0.68 0.68 0 0 Z " fill="#CECECE" transform="translate(211,298)"/>
<path d="M0 0 C0.33 0 0.66 0 1 0 C1 2.64 1 5.28 1 8 C-0.98 8.99 -0.98 8.99 -3 10 C-1.125 2.25 -1.125 2.25 0 0 Z " fill="#D4D3D3" transform="translate(327,226)"/>
<path d="M0 0 C2.25 0.25 2.25 0.25 4 1 C2.02 2.32 0.04 3.64 -2 5 C-2.66 4.67 -3.32 4.34 -4 4 C-2.25 1.9375 -2.25 1.9375 0 0 Z " fill="#E4E3E3" transform="translate(198,310)"/>
</svg>
